Coordinates
version=1
nRows=26
nColumns=30
inDegrees=yes

Units are S.I. units (second, meters, Newtons, ...)
Angles are in degrees.

endheader
time	floatyaw	floatroll	floatpitch	floatx	floaty	floatz	pro_sup_l	deviation_l	flexion_l	cmc_flexion_l	cmc_abduction_l	mp_flexion_l	ip_flexion_l	2mcp_flexion_l	2mcp_abduction_l	2pm_flexion_l	2md_flexion_l	3mcp_flexion_l	3mcp_abduction_l	3pm_flexion_l	3md_flexion_l	4mcp_flexion_l	4mcp_abduction_l	4pm_flexion_l	4md_flexion_l	5mcp_flexion_l	5mcp_abduction_l	5pm_flexion_l	5md_flexion_l
-1.495000	-160.147433	-5.066637	-73.570646	0.082538	-0.182299	-0.014874	101.533294	2.499679	0.403320	16.184302	7.541549	-25.005611	-41.170714	28.258809	5.620512	41.628348	27.832884	22.501057	3.779995	42.248951	28.080264	11.088671	-4.189872	50.780255	34.527594	-1.058330	-6.439074	61.290848	40.531947
-1.485000	-160.147433	-5.066637	-73.570646	0.082541	-0.182294	-0.014874	101.539446	2.502384	0.407233	16.174674	7.574438	-25.018954	-41.180915	28.273475	5.617549	41.617055	27.825502	22.483774	3.781555	42.267507	28.094981	11.088560	-4.187388	50.777476	34.530098	-1.055224	-6.444697	61.286872	40.537297
-1.475000	-160.147433	-5.066637	-73.570646	0.082540	-0.182294	-0.014874	101.538303	2.502691	0.407229	16.153946	7.615760	-25.029412	-41.182342	28.288064	5.613829	41.606670	27.826589	22.471235	3.783799	42.281795	28.112386	11.090158	-4.186523	50.776714	34.538806	-1.058058	-6.453164	61.293173	40.550956
-1.465000	-160.147433	-5.066637	-73.570646	0.082538	-0.182298	-0.014877	101.535452	2.502514	0.405197	16.129252	7.655391	-25.041744	-41.183570	28.298316	5.609541	41.599742	27.832843	22.464593	3.786478	42.288270	28.126679	11.090126	-4.187634	50.780503	34.551741	-1.068648	-6.460980	61.308320	40.569142
-1.455000	-160.147433	-5.066637	-73.570646	0.082536	-0.182301	-0.014881	101.535932	2.503059	0.403111	16.109103	7.682770	-25.060666	-41.193440	28.303220	5.605359	41.595917	27.840269	22.462718	3.789867	42.285701	28.134220	11.085420	-4.190687	50.791259	34.567137	-1.085545	-6.465461	61.329129	40.587848
-1.445000	-160.147433	-5.066637	-73.570646	0.082535	-0.182304	-0.014887	101.541148	2.504072	0.402278	16.098893	7.691903	-25.087496	-41.215186	28.304304	5.601967	41.593397	27.846538	22.461936	3.794468	42.276022	28.135091	11.074105	-4.195188	50.810145	34.583947	-1.105574	-6.466000	61.351878	40.604858
-1.435000	-160.147433	-5.066637	-73.570646	0.082535	-0.182305	-0.014896	101.547980	2.503923	0.403248	16.098369	7.685082	-25.119031	-41.244319	28.303965	5.599656	41.590657	27.851476	22.457249	3.800416	42.263762	28.132332	11.056133	-4.200292	50.835568	34.601042	-1.126041	-6.463985	61.372900	40.620306
-1.425000	-160.147433	-5.066637	-73.570646	0.082536	-0.182306	-0.014907	101.551008	2.500772	0.406121	16.102212	7.672730	-25.148861	-41.271192	28.304034	5.598245	41.587419	27.855942	22.444583	3.807085	42.254275	28.129770	11.033931	-4.205089	50.862518	34.616112	-1.145665	-6.461667	61.388791	40.635415
-1.415000	-160.147433	-5.066637	-73.570646	0.082537	-0.182306	-0.014918	101.546620	2.494249	0.410834	16.103134	7.668467	-25.169906	-41.286139	28.305261	5.597344	41.584531	27.860309	22.422920	3.813277	42.251297	28.129892	11.012265	-4.208919	50.883625	34.625522	-1.163836	-6.460828	61.396995	40.650394
-1.405000	-160.147433	-5.066637	-73.570646	0.082538	-0.182306	-0.014928	101.536263	2.486562	0.417209	16.095740	7.681721	-25.176821	-41.283877	28.307767	5.596735	41.582902	27.863609	22.395157	3.817957	42.254780	28.132761	10.996981	-4.211557	50.891769	34.625549	-1.179256	-6.462066	61.396852	40.663121
-1.395000	-160.147433	-5.066637	-73.570646	0.082540	-0.182302	-0.014934	101.526604	2.482088	0.424874	16.079159	7.712349	-25.167523	-41.265005	28.311829	5.596587	41.582223	27.863697	22.367205	3.820916	42.260325	28.136237	10.992910	-4.213208	50.883006	34.614274	-1.189250	-6.464914	61.390106	40.669586
-1.385000	-160.147433	-5.066637	-73.570646	0.082544	-0.182291	-0.014935	101.526370	2.485472	0.433282	16.057201	7.750735	-25.143745	-41.234543	28.318168	5.597309	41.580524	27.858341	22.345672	3.822855	42.260966	28.137283	11.001834	-4.214324	50.858350	34.592946	-1.190295	-6.468392	61.379953	40.665863
-1.375000	-160.147433	-5.066637	-73.570646	0.082549	-0.182273	-0.014928	101.541706	2.499202	0.441874	16.036076	7.783180	-25.110778	-41.199102	28.327354	5.599153	41.575090	27.846884	22.335113	3.824813	42.250703	28.133769	11.021500	-4.215326	50.823562	34.565996	-1.179534	-6.471475	61.369027	40.650486
-1.365000	-160.147433	-5.066637	-73.570646	0.082558	-0.182249	-0.014917	101.572652	2.521962	0.450275	16.021099	7.799048	-25.076482	-41.164611	28.338879	5.601924	41.564079	27.831549	22.336183	3.827389	42.227895	28.125936	11.046091	-4.216338	50.787172	34.539709	-1.156596	-6.473300	61.357914	40.625910
-1.355000	-160.147433	-5.066637	-73.570646	0.082567	-0.182221	-0.014904	101.612661	2.548689	0.458269	16.014301	7.795603	-25.049553	-41.135721	28.350744	5.605123	41.547636	27.817234	22.345649	3.830276	42.196755	28.116725	11.067956	-4.217097	50.757804	34.520198	-1.124748	-6.473343	61.345598	40.598233
-1.345000	-160.147433	-5.066637	-73.570646	0.082575	-0.182197	-0.014893	101.651467	2.572455	0.465465	16.014207	7.778578	-25.037081	-41.116348	28.360032	5.608522	41.527937	27.809504	22.358200	3.832391	42.166298	28.110777	11.080143	-4.217092	50.741922	34.511577	-1.090367	-6.471772	61.331778	40.575180
-1.335000	-160.147433	-5.066637	-73.570646	0.082581	-0.182180	-0.014887	101.679820	2.587387	0.470936	16.017452	7.759104	-25.041950	-41.109788	28.364080	5.612698	41.508579	27.811957	22.368895	3.832532	42.147289	28.112678	11.078957	-4.215896	50.742559	34.515004	-1.060431	-6.469770	61.319122	40.563193
-1.325000	-160.147433	-5.066637	-73.570646	0.082582	-0.182174	-0.014888	101.693547	2.591200	0.473369	16.020724	7.748918	-25.061333	-41.117572	28.361584	5.618897	41.493771	27.824687	22.374776	3.830143	42.148304	28.125320	11.065376	-4.213518	50.758976	34.528750	-1.039271	-6.469310	61.313141	40.564838
-1.315000	-160.147433	-5.066637	-73.570646	0.082579	-0.182179	-0.014895	101.694699	2.585919	0.471916	16.021678	7.755763	-25.087510	-41.137851	28.353231	5.628082	41.487194	27.844586	22.374980	3.825720	42.172252	28.148929	11.044459	-4.210539	50.786977	34.549000	-1.026807	-6.472167	61.319033	40.577646
-1.305000	-160.147433	-5.066637	-73.570646	0.082572	-0.182188	-0.014906	101.689429	2.576429	0.467241	16.018734	7.780515	-25.110987	-41.164879	28.341847	5.639751	41.490281	27.866809	22.369938	3.820614	42.214714	28.180825	11.022986	-4.207904	50.819698	34.570902	-1.019555	-6.478627	61.337493	40.595076
-1.295000	-160.147433	-5.066637	-73.570646	0.082564	-0.182198	-0.014916	101.684318	2.567845	0.461834	16.010686	7.817098	-25.124348	-41.190401	28.331948	5.651503	41.500639	27.886310	22.360683	3.816416	42.264900	28.215719	11.006741	-4.206482	50.848867	34.589541	-1.013517	-6.486925	61.362694	40.609358
-1.285000	-160.147433	-5.066637	-73.570646	0.082556	-0.182200	-0.014923	101.683501	2.563322	0.459071	15.996922	7.855385	-25.124829	-41.206441	28.328445	5.659860	41.512209	27.898984	22.348828	3.814304	42.309076	28.246609	10.998850	-4.206676	50.866634	34.600835	-1.006575	-6.494067	61.384247	40.614858
-1.275000	-160.147433	-5.066637	-73.570646	0.082553	-0.182192	-0.014928	101.687869	2.563318	0.461443	15.978093	7.885947	-25.114535	-41.208079	28.334551	5.662018	41.518059	27.902627	22.336845	3.814661	42.335313	28.266418	10.999526	-4.208303	50.867931	34.602501	-0.998758	-6.497674	61.392053	40.610221
-1.265000	-160.147433	-5.066637	-73.570646	0.082554	-0.182176	-0.014933	101.695842	2.566147	0.469075	15.956354	7.904253	-25.098696	-41.194908	28.349750	5.657486	41.514530	27.897780	22.327867	3.817071	42.337722	28.270222	11.006624	-4.210775	50.852712	34.594938	-0.990830	-6.497523	61.381042	40.598359
-1.255000	-160.147433	-5.066637	-73.570646	0.082559	-0.182156	-0.014939	101.704581	2.569031	0.479518	15.934687	7.911957	-25.083190	-41.170712	28.369298	5.648579	41.503826	27.887821	22.324597	3.820615	42.318413	28.257233	11.016375	-4.213481	50.826890	34.581565	-0.983080	-6.495597	61.353247	40.584772
-1.245000	-160.147433	-5.066637	-73.570646	0.082565	-0.182139	-0.014949	101.711075	2.569149	0.488988	15.915768	7.914593	-25.072453	-41.141908	28.386129	5.639466	41.492889	27.877706	22.327705	3.824328	42.286480	28.231544	11.024280	-4.216136	50.800980	34.568069	-0.975462	-6.494629	61.316647	40.575312
